HIERARCHY
ROOT Hips
{
	OFFSET 0 0 0
	CHANNELS 6 Xposition Yposition Zposition Yrotation Xrotation Zrotation
	JOINT Spine
	{
		OFFSET -0 8.23869 -2.62608
		CHANNELS 3 Yrotation Xrotation Zrotation
		JOINT Spine1
		{
			OFFSET -0 7.92598 0
			CHANNELS 3 Yrotation Xrotation Zrotation
			JOINT Spine2
			{
				OFFSET -0 7.92598 0
				CHANNELS 3 Yrotation Xrotation Zrotation
				JOINT Spine3
				{
					OFFSET -0 7.92598 0
					CHANNELS 3 Yrotation Xrotation Zrotation
					JOINT Neck
					{
						OFFSET -0 15.3347 3.62608
						CHANNELS 3 Yrotation Xrotation Zrotation
						JOINT Head
						{
							OFFSET -0 10.2984 0
							CHANNELS 3 Yrotation Xrotation Zrotation
							End Site
							{
								OFFSET 0 15 0
							}
						}
					}
					JOINT LeftShoulder
					{
						OFFSET 1.71639 3.24826 3.43279
						CHANNELS 3 Yrotation Xrotation Zrotation
						JOINT LeftArm
						{
							OFFSET 19.515 0 0
							CHANNELS 3 Yrotation Xrotation Zrotation
							JOINT LeftForeArm
							{
								OFFSET 23.117 0 0
								CHANNELS 3 Yrotation Xrotation Zrotation
								JOINT LeftHand
								{
									OFFSET 24.3821 0 0
									CHANNELS 3 Yrotation Xrotation Zrotation
									JOINT LeftHandThumb1
									{
										OFFSET 4.89344 0 2.57866
										CHANNELS 3 Yrotation Xrotation Zrotation
										JOINT LeftHandThumb2
										{
											OFFSET 3 0 1
											CHANNELS 3 Yrotation Xrotation Zrotation
											JOINT LeftHandThumb3
											{
												OFFSET 2.1 0 0
												CHANNELS 3 Yrotation Xrotation Zrotation
												JOINT LeftHandThumb4
												{
													OFFSET 1.305 0 0
													CHANNELS 3 Yrotation Xrotation Zrotation
													End Site
													{
														OFFSET -0 0 0
													}
												}
											}
										}
									}
									JOINT LeftHandIndex1
									{
										OFFSET 9.17063 0 3.39553
										CHANNELS 3 Yrotation Xrotation Zrotation
										JOINT LeftHandIndex2
										{
											OFFSET 3.5 0 0
											CHANNELS 3 Yrotation Xrotation Zrotation
											JOINT LeftHandIndex3
											{
												OFFSET 2.45 0 0
												CHANNELS 3 Yrotation Xrotation Zrotation
												JOINT LeftHandIndex4
												{
													OFFSET 1.5225 0 0
													CHANNELS 3 Yrotation Xrotation Zrotation
													End Site
													{
														OFFSET -0 0 0
													}
												}
											}
										}
									}
									JOINT LeftHandMiddle1
									{
										OFFSET 9.21351 0 0.900721
										CHANNELS 3 Yrotation Xrotation Zrotation
										JOINT LeftHandMiddle2
										{
											OFFSET 4.6 0 0
											CHANNELS 3 Yrotation Xrotation Zrotation
											JOINT LeftHandMiddle3
											{
												OFFSET 3.22 0 0
												CHANNELS 3 Yrotation Xrotation Zrotation
												JOINT LeftHandMiddle4
												{
													OFFSET 2.001 0 0
													CHANNELS 3 Yrotation Xrotation Zrotation
													End Site
													{
														OFFSET -0 0 0
													}
												}
											}
										}
									}
									JOINT LeftHandRing1
									{
										OFFSET 8.95639 0 -1.59409
										CHANNELS 3 Yrotation Xrotation Zrotation
										JOINT LeftHandRing2
										{
											OFFSET 3.75 0 0
											CHANNELS 3 Yrotation Xrotation Zrotation
											JOINT LeftHandRing3
											{
												OFFSET 2.625 0 0
												CHANNELS 3 Yrotation Xrotation Zrotation
												JOINT LeftHandRing4
												{
													OFFSET 1.63125 0 0
													CHANNELS 3 Yrotation Xrotation Zrotation
													End Site
													{
														OFFSET -0 0 0
													}
												}
											}
										}
									}
									JOINT LeftHandPinky1
									{
										OFFSET 8.39928 0 -4.08889
										CHANNELS 3 Yrotation Xrotation Zrotation
										JOINT LeftHandPinky2
										{
											OFFSET 2.875 0 0
											CHANNELS 3 Yrotation Xrotation Zrotation
											JOINT LeftHandPinky3
											{
												OFFSET 2.0125 0 0
												CHANNELS 3 Yrotation Xrotation Zrotation
												JOINT LeftHandPinky4
												{
													OFFSET 1.25062 0 0
													CHANNELS 3 Yrotation Xrotation Zrotation
													End Site
													{
														OFFSET -0 0 0
													}
												}
											}
										}
									}
								}
							}
						}
					}
					JOINT RightShoulder
					{
						OFFSET -1.71639 3.24826 3.43279
						CHANNELS 3 Yrotation Xrotation Zrotation
						JOINT RightArm
						{
							OFFSET -19.515 0 0
							CHANNELS 3 Yrotation Xrotation Zrotation
							JOINT RightForeArm
							{
								OFFSET -23.117 0 0
								CHANNELS 3 Yrotation Xrotation Zrotation
								JOINT RightHand
								{
									OFFSET -24.3821 0 0
									CHANNELS 3 Yrotation Xrotation Zrotation
									JOINT RightHandThumb1
									{
										OFFSET -4.44833 0 2.59928
										CHANNELS 3 Yrotation Xrotation Zrotation
										JOINT RightHandThumb2
										{
											OFFSET -3 0 1
											CHANNELS 3 Yrotation Xrotation Zrotation
											JOINT RightHandThumb3
											{
												OFFSET -2.1 0 0
												CHANNELS 3 Yrotation Xrotation Zrotation
												JOINT RightHandThumb4
												{
													OFFSET -1.305 0 0
													CHANNELS 3 Yrotation Xrotation Zrotation
													End Site
													{
														OFFSET -0 0 0
													}
												}
											}
										}
									}
									JOINT RightHandIndex1
									{
										OFFSET -7.73763 0 3.41549
										CHANNELS 3 Yrotation Xrotation Zrotation
										JOINT RightHandIndex2
										{
											OFFSET -3.5 0 0
											CHANNELS 3 Yrotation Xrotation Zrotation
											JOINT RightHandIndex3
											{
												OFFSET -2.45 0 0
												CHANNELS 3 Yrotation Xrotation Zrotation
												JOINT RightHandIndex4
												{
													OFFSET -1.5225 0 0
													CHANNELS 3 Yrotation Xrotation Zrotation
													End Site
													{
														OFFSET -0 0 0
													}
												}
											}
										}
									}
									JOINT RightHandMiddle1
									{
										OFFSET -8.14217 0 1.11673
										CHANNELS 3 Yrotation Xrotation Zrotation
										JOINT RightHandMiddle2
										{
											OFFSET -4.6 0 0
											CHANNELS 3 Yrotation Xrotation Zrotation
											JOINT RightHandMiddle3
											{
												OFFSET -3.22 0 0
												CHANNELS 3 Yrotation Xrotation Zrotation
												JOINT RightHandMiddle4
												{
													OFFSET -2.001 0 0
													CHANNELS 3 Yrotation Xrotation Zrotation
													End Site
													{
														OFFSET -0 0 0
													}
												}
											}
										}
									}
									JOINT RightHandRing1
									{
										OFFSET -8.24672 0 -1.18204
										CHANNELS 3 Yrotation Xrotation Zrotation
										JOINT RightHandRing2
										{
											OFFSET -3.75 0 0
											CHANNELS 3 Yrotation Xrotation Zrotation
											JOINT RightHandRing3
											{
												OFFSET -2.625 0 0
												CHANNELS 3 Yrotation Xrotation Zrotation
												JOINT RightHandRing4
												{
													OFFSET -1.63125 0 0
													CHANNELS 3 Yrotation Xrotation Zrotation
													End Site
													{
														OFFSET -0 0 0
													}
												}
											}
										}
									}
									JOINT RightHandPinky1
									{
										OFFSET -8.05126 0 -3.4808
										CHANNELS 3 Yrotation Xrotation Zrotation
										JOINT RightHandPinky2
										{
											OFFSET -2.875 0 0
											CHANNELS 3 Yrotation Xrotation Zrotation
											JOINT RightHandPinky3
											{
												OFFSET -2.0125 0 0
												CHANNELS 3 Yrotation Xrotation Zrotation
												JOINT RightHandPinky4
												{
													OFFSET -1.25062 0 0
													CHANNELS 3 Yrotation Xrotation Zrotation
													End Site
													{
														OFFSET -0 0 0
													}
												}
											}
										}
									}
								}
							}
						}
					}
				}
			}
		}
	}
	JOINT LeftUpLeg
	{
		OFFSET 10.2984 -3.43279 3
		CHANNELS 3 Yrotation Xrotation Zrotation
		JOINT LeftLeg
		{
			OFFSET -0 -43.8423 2.40295
			CHANNELS 3 Yrotation Xrotation Zrotation
			JOINT LeftFoot
			{
				OFFSET -0 -38.9759 -2.40295
				CHANNELS 3 Yrotation Xrotation Zrotation
				JOINT LeftToeBase
				{
					OFFSET -0 -9.09429 9.70353
					CHANNELS 3 Yrotation Xrotation Zrotation
					End Site
					{
						OFFSET 0 0 5
					}
				}
			}
		}
	}
	JOINT RightUpLeg
	{
		OFFSET -10.2984 -3.43279 3
		CHANNELS 3 Yrotation Xrotation Zrotation
		JOINT RightLeg
		{
			OFFSET -0 -43.8423 2.40295
			CHANNELS 3 Yrotation Xrotation Zrotation
			JOINT RightFoot
			{
				OFFSET -0 -38.9759 -2.40295
				CHANNELS 3 Yrotation Xrotation Zrotation
				JOINT RightToeBase
				{
					OFFSET -0 -9.09429 9.70353
					CHANNELS 3 Yrotation Xrotation Zrotation
					End Site
					{
						OFFSET 0 0 5
					}
				}
			}
		}
	}
}
MOTION
Frames: 5
Frame Time: 0.0047619
0 95.736452 0 0 0 0 0 0 0 0 0 0 0 0 0 0 0 0 0 0 0 0 0 0 0 0 0 0 0 0 0 0 0 0 0 0 0 0 0 0 0 0 0 0 0 0 0 0 0 0 0 0 0 0 0 0 0 0 0 0 0 0 0 0 0 0 0 0 0 0 0 0 0 0 0 0 0 0 0 0 0 0 0 0 0 0 0 0 0 0 0 0 0 0 0 0 0 0 0 0 0 0 0 0 0 0 0 0 0 0 0 0 0 0 0 0 0 0 0 0 0 0 0 0 0 0 0 0 0 0 0 0 0 0 0 0 0 0 0 0 0 0 0 0 0 0 0 0 0 0 0 0 0 0 0 0 0 0 0 0 0 0 0 0 0 0 0 0 0 0 0 0 0 0 0 0 0 0 0 0 0 0 0 0 0 0 0 0 0 0 0 0
-27.111810 96.169995 -16.237544 1.488478 -0.363332 -0.125611 -0.271868 0.023904 -0.640868 -0.177893 0.126379 -0.426659 0.082694 0.318277 -0.184713 0.183836 0.392843 -0.102739 0.668078 0.324869 1.343359 0.285813 -0.216277 -1.589079 8.279137 0.349780 12.472553 -19.898887 3.851113 -6.238529 -9.308867 2.434186 3.248408 21.107313 3.448520 -36.984083 26.734920 7.745464 -3.764031 30.742830 9.026918 -4.004574 -28.105953 -10.336793 -4.830855 -0.000045 0.000023 -1.031951 -0.000045 0.000023 -1.031951 -0.000036 0.000025 -0.825553 -0.000009 0.000008 -0.412779 -0.000042 0.000023 -2.769235 -0.000042 0.000023 -2.769235 -0.000045 0.000028 -2.215388 -0.000027 0.000011 -1.107686 -0.000039 0.000023 6.071512 -0.000039 0.000023 6.071512 -0.000036 0.000018 4.857207 -0.000015 0.000010 2.428603 -0.000054 0.000033 6.008438 -0.000054 0.000033 6.008438 -0.000044 0.000018 4.806759 -0.000019 0.000010 2.403372 -173.170680 -0.004971 -179.916690 -10.848006 3.443263 -8.052813 25.085638 3.445100 0.069898 4.148693 4.820714 3.201304 -16.913968 -7.606503 39.083277 -9.806005 9.552865 -19.904846 -11.565571 10.665703 -23.064382 -62.612105 15.301539 21.867456 -0.000005 -0.000001 -12.499995 -0.000005 -0.000001 -12.499995 0.000002 -0.000001 -10.000000 0.000004 0.000001 -4.999999 -0.000005 -0.000001 -12.499995 -0.000005 -0.000001 -12.499995 0.000002 -0.000001 -10.000000 0.000004 0.000001 -4.999999 -0.000001 0.000005 9.792095 -0.000001 0.000005 9.792095 0.000004 0.000002 7.833673 -0.000003 -0.000001 3.916830 -0.000006 -0.000012 27.088181 -0.000006 -0.000012 27.088181 -0.000003 -0.000013 21.670552 0.000001 -0.000003 10.835256 26.734920 7.745464 -3.764031 11.965395 5.619358 5.898470 0.000000 1.060645 0.000000 9.069797 2.458740 -1.497439 0.000000 -10.503570 0.000000 -3.851232 5.652944 -4.922651 0.000000 -3.201454 0.000000 -19.404014 2.221250 1.168462 0.000000 -5.047365 0.000000
-27.101367 96.169183 -16.236404 1.482574 -0.365586 -0.136255 -0.266694 0.024745 -0.625226 -0.174444 0.126741 -0.420934 0.082321 0.313866 -0.194019 0.182487 0.381398 -0.124475 0.647364 0.358723 1.374394 0.277055 -0.244848 -1.585176 8.294145 0.374237 12.486709 -19.916391 3.812001 -6.216616 -9.316447 2.466442 3.228577 21.115490 3.416361 -36.950111 26.730338 7.751917 -3.755553 30.737701 9.033963 -3.994648 -28.075056 -10.354293 -4.683536 -0.000007 0.000003 -0.972685 -0.000007 0.000003 -0.972685 0.000003 0.000003 -0.778147 -0.000001 -0.000001 -0.389071 -0.000009 0.000003 -2.711170 -0.000009 0.000003 -2.711170 -0.000010 0.000007 -2.168931 0.000006 -0.000001 -1.084469 -0.000008 0.000006 6.042768 -0.000008 0.000006 6.042768 -0.000020 0.000010 4.834218 -0.000002 0.000004 2.417106 -0.000014 0.000014 5.974034 -0.000014 0.000014 5.974034 -0.000022 0.000002 4.779234 0.000006 0.000003 2.389612 -173.170699 -0.004971 -179.916690 -10.839054 3.442163 -8.035273 25.079941 3.468758 0.088137 4.147837 4.828243 3.182815 -16.955748 -7.401988 38.990259 -9.764462 9.549499 -19.854642 -11.517091 10.663969 -23.006004 -62.573106 15.269779 22.017846 0.000005 0.000001 -12.500001 0.000005 0.000001 -12.500001 -0.000002 -0.000001 -9.999994 -0.000003 0.000000 -5.000002 0.000005 0.000001 -12.500001 0.000005 0.000001 -12.500001 -0.000002 -0.000001 -9.999994 -0.000003 0.000000 -5.000002 0.000070 0.000082 9.620208 0.000070 0.000082 9.620208 0.000044 0.000068 7.696168 0.000015 0.000038 3.848084 -0.000060 -0.000074 27.244418 -0.000060 -0.000074 27.244418 -0.000018 -0.000076 21.795531 0.000005 -0.000038 10.897762 26.730338 7.751917 -3.755553 11.971615 5.621939 5.907363 0.000000 1.069786 0.000000 9.059602 2.428484 -1.537270 0.000000 -10.471980 0.000000 -3.857685 5.652056 -4.919765 0.000000 -3.187759 0.000000 -19.386664 2.191454 1.208771 0.000000 -4.993181 0.000000
-27.090552 96.167627 -16.237904 1.480733 -0.367978 -0.105930 -0.263884 0.024770 -0.646938 -0.172436 0.118041 -0.436908 0.086520 0.327144 -0.200004 0.185893 0.381006 -0.119842 0.635827 0.320586 1.410004 0.271226 -0.183696 -1.622250 8.275766 0.358849 12.493941 -19.919797 3.796395 -6.208105 -9.306745 2.448980 3.212478 21.104449 3.461301 -36.953510 26.730338 7.751917 -3.755553 30.737701 9.033963 -3.994648 -28.075056 -10.354293 -4.683536 -0.000007 0.000003 -0.972685 -0.000007 0.000003 -0.972685 0.000003 0.000003 -0.778147 -0.000001 -0.000001 -0.389071 -0.000009 0.000003 -2.711170 -0.000009 0.000003 -2.711170 -0.000010 0.000007 -2.168931 0.000006 -0.000001 -1.084469 -0.000008 0.000006 6.042768 -0.000008 0.000006 6.042768 -0.000020 0.000010 4.834218 -0.000002 0.000004 2.417106 -0.000014 0.000014 5.974034 -0.000014 0.000014 5.974034 -0.000022 0.000002 4.779234 0.000006 0.000003 2.389612 -173.170699 -0.004971 -179.916690 -10.851677 3.429078 -8.029172 25.089357 3.444694 0.089090 4.149988 4.866995 3.204662 -16.966494 -7.415508 39.005433 -9.764462 9.549499 -19.854642 -11.517091 10.663969 -23.006004 -62.573106 15.269779 22.017846 0.000005 0.000001 -12.500001 0.000005 0.000001 -12.500001 -0.000002 -0.000001 -9.999994 -0.000003 0.000000 -5.000002 0.000005 0.000001 -12.500001 0.000005 0.000001 -12.500001 -0.000002 -0.000001 -9.999994 -0.000003 0.000000 -5.000002 0.000070 0.000082 9.620208 0.000070 0.000082 9.620208 0.000044 0.000068 7.696168 0.000015 0.000038 3.848084 -0.000060 -0.000074 27.244418 -0.000060 -0.000074 27.244418 -0.000018 -0.000076 21.795531 0.000005 -0.000038 10.897762 26.730338 7.751917 -3.755553 11.963079 5.623705 5.870933 0.000000 1.079454 0.000000 9.066962 2.445134 -1.531994 0.000000 -10.486016 0.000000 -3.867073 5.651768 -4.953822 0.000000 -3.195510 0.000000 -19.397427 2.214186 1.161488 0.000000 -5.023171 0.000000
-27.079147 96.163965 -16.237192 1.472297 -0.370274 -0.096523 -0.263398 0.022382 -0.650411 -0.172658 0.114174 -0.440231 0.094288 0.312316 -0.203099 0.193755 0.397152 -0.121194 0.614590 0.347576 1.410566 0.262413 -0.214175 -1.614744 8.269238 0.369042 12.503913 -19.919284 3.749260 -6.211071 -9.318132 2.500881 3.204391 21.110043 3.456067 -36.975172 26.730338 7.751917 -3.755553 30.737701 9.033963 -3.994648 -28.075056 -10.354293 -4.683536 -0.000007 0.000003 -0.972685 -0.000007 0.000003 -0.972685 0.000003 0.000003 -0.778147 -0.000001 -0.000001 -0.389071 -0.000009 0.000003 -2.711170 -0.000009 0.000003 -2.711170 -0.000010 0.000007 -2.168931 0.000006 -0.000001 -1.084469 -0.000008 0.000006 6.042768 -0.000008 0.000006 6.042768 -0.000020 0.000010 4.834218 -0.000002 0.000004 2.417106 -0.000014 0.000014 5.974034 -0.000014 0.000014 5.974034 -0.000022 0.000002 4.779234 0.000006 0.000003 2.389612 -173.170699 -0.004971 -179.916690 -10.852205 3.426864 -8.040221 25.088675 3.437852 0.105554 4.150906 4.876086 3.212550 -16.972153 -7.423896 39.017975 -9.764462 9.549499 -19.854642 -11.517091 10.663969 -23.006004 -62.573106 15.269779 22.017846 0.000005 0.000001 -12.500001 0.000005 0.000001 -12.500001 -0.000002 -0.000001 -9.999994 -0.000003 0.000000 -5.000002 0.000005 0.000001 -12.500001 0.000005 0.000001 -12.500001 -0.000002 -0.000001 -9.999994 -0.000003 0.000000 -5.000002 0.000070 0.000082 9.620208 0.000070 0.000082 9.620208 0.000044 0.000068 7.696168 0.000015 0.000038 3.848084 -0.000060 -0.000074 27.244418 -0.000060 -0.000074 27.244418 -0.000018 -0.000076 21.795531 0.000005 -0.000038 10.897762 26.730338 7.751917 -3.755553 12.000863 5.621612 5.853946 0.000000 1.090653 0.000000 9.042140 2.438995 -1.490891 0.000000 -10.536223 0.000000 -3.833273 5.657731 -4.965737 0.000000 -3.203267 0.000000 -19.428836 2.198197 1.106419 0.000000 -5.024046 0.000000
